HIERARCHY
ROOT root
{
	OFFSET 0.000000 0.000000 0.000000
	CHANNELS 6 Xposition Yposition Zposition Zrotation Yrotation Xrotation
	JOINT lhip
	{
		OFFSET 0.058581 -0.082280 -0.017664
		CHANNELS 3 Zrotation Yrotation Xrotation
		JOINT lknee
		{
			OFFSET 0.043451 -0.386469 0.008037
			CHANNELS 3 Zrotation Yrotation Xrotation
			JOINT lankle
			{
				OFFSET -0.014790 -0.426874 -0.037428
				CHANNELS 3 Zrotation Yrotation Xrotation
				JOINT ltoe
				{
					OFFSET 0.041054 -0.060286 0.122042
					CHANNELS 3 Zrotation Yrotation Xrotation
					End Site
					{
						OFFSET 0.000000 0.000000 0.000000
					}
				}
			}
		}
	}
	JOINT rhip
	{
		OFFSET -0.060310 -0.090513 -0.013543
		CHANNELS 3 Zrotation Yrotation Xrotation
		JOINT rknee
		{
			OFFSET -0.043257 -0.383688 -0.004843
			CHANNELS 3 Zrotation Yrotation Xrotation
			JOINT rankle
			{
				OFFSET 0.019056 -0.420046 -0.034562
				CHANNELS 3 Zrotation Yrotation Xrotation
				JOINT rtoe
				{
					OFFSET -0.034840 -0.062106 0.130323
					CHANNELS 3 Zrotation Yrotation Xrotation
					End Site
					{
						OFFSET 0.000000 0.000000 0.000000
					}
				}
			}
		}
	}
	JOINT lowerback
	{
		OFFSET 0.004439 0.124404 -0.038385
		CHANNELS 3 Zrotation Yrotation Xrotation
		JOINT upperback
		{
			OFFSET 0.004488 0.137956 0.026820
			CHANNELS 3 Zrotation Yrotation Xrotation
			JOINT chest
			{
				OFFSET -0.002265 0.056032 0.002855
				CHANNELS 3 Zrotation Yrotation Xrotation
				JOINT lowerneck
				{
					OFFSET -0.013390 0.211636 -0.033468
					CHANNELS 3 Zrotation Yrotation Xrotation
					JOINT upperneck
					{
						OFFSET 0.010113 0.088937 0.050410
						CHANNELS 3 Zrotation Yrotation Xrotation
						End Site
						{
							OFFSET 0.000000 0.000000 0.000000
						}
					}
				}
				JOINT lclavicle
				{
					OFFSET 0.071702 0.114000 -0.018898
					CHANNELS 3 Zrotation Yrotation Xrotation
					JOINT lshoulder
					{
						OFFSET 0.122921 0.045205 -0.019046
						CHANNELS 3 Zrotation Yrotation Xrotation
						JOINT lelbow
						{
							OFFSET 0.255332 -0.015649 -0.022946
							CHANNELS 3 Zrotation Yrotation Xrotation
							JOINT lwrist
							{
								OFFSET 0.265709 0.012698 -0.007375
								CHANNELS 3 Zrotation Yrotation Xrotation
								End Site
								{
									OFFSET 0.000000 0.000000 0.000000
								}
							}
						}
					}
				}
				JOINT rclavicle
				{
					OFFSET -0.082954 0.112472 -0.023707
					CHANNELS 3 Zrotation Yrotation Xrotation
					JOINT rshoulder
					{
						OFFSET -0.113228 0.046853 -0.008472
						CHANNELS 3 Zrotation Yrotation Xrotation
						JOINT relbow
						{
							OFFSET -0.260127 -0.014369 -0.031269
							CHANNELS 3 Zrotation Yrotation Xrotation
							JOINT rwrist
							{
								OFFSET -0.269108 0.006794 -0.006027
								CHANNELS 3 Zrotation Yrotation Xrotation
								End Site
								{
									OFFSET 0.000000 0.000000 0.000000
								}
							}
						}
					}
				}
			}
		}
	}
}
MOTION
Frames: 15
Frame Time: 0.033333
1.055987 0.533699 0.665992 -76.197979 3.800459 140.570337 21.711552 0.686058 -6.512797 -10.158290 -31.616048 21.725190 3.149222 16.612042 -55.097827 0.000000 -0.000000 0.000000 -13.931926 -30.016550 -117.608035 10.700947 -41.946891 54.822408 9.329806 -11.116963 9.470083 0.000000 -0.000000 0.000000 4.146033 -7.613013 42.913589 1.376529 5.287582 -12.846966 7.581633 -2.512857 0.375801 -3.231694 14.769236 -47.285535 3.330809 -10.817968 -9.599672 4.387852 -44.129135 -4.183016 -18.841869 -35.323656 -9.003242 17.960766 -16.502841 -9.046893 47.771189 -22.635365 1.289642 8.986056 53.640004 4.653357 11.039278 50.941798 -16.963482 -13.295276 14.043009 2.396049 -27.782453 28.385630 8.490227 
1.061721 0.533557 0.671010 -76.076298 3.589617 140.909850 21.623240 0.800850 -7.419993 -10.061901 -31.187860 21.474234 2.974763 16.523955 -55.079450 0.000000 -0.000000 0.000000 -14.202658 -29.707662 -117.219837 10.995699 -41.163529 52.786446 9.449025 -12.008263 10.465149 0.000000 -0.000000 0.000000 4.255766 -7.559511 43.248969 1.524260 5.183870 -12.851742 7.786937 -2.595021 0.695622 -2.956706 14.389937 -46.830474 3.605334 -10.665451 -9.197716 4.862112 -44.182467 -4.449837 -17.199623 -35.220595 -10.046050 17.746721 -16.565205 -9.627136 47.339904 -22.898986 1.409747 7.884215 53.802603 3.731949 9.353071 51.216538 -18.079294 -13.358830 13.838675 1.863352 -27.095615 28.492533 8.995109 
1.067564 0.533087 0.675791 -75.970915 3.440305 141.229373 21.539755 1.013126 -8.289351 -10.032229 -30.799169 21.235340 2.894324 16.528620 -55.056884 0.000000 -0.000000 0.000000 -14.405026 -29.384368 -116.809104 11.319737 -40.361272 50.710247 9.551873 -12.907908 11.510993 0.000000 -0.000000 0.000000 4.361281 -7.505682 43.586100 1.654061 5.091619 -12.874636 8.025200 -2.689049 1.122364 -2.656851 13.939626 -46.310245 3.919608 -10.425658 -8.681389 5.365273 -44.161824 -4.748813 -15.605685 -34.990415 -11.036493 17.517342 -16.840243 -10.402545 47.236730 -23.031447 1.387475 6.583539 53.884709 2.630948 7.749728 51.410203 -19.146413 -13.365392 13.792024 1.230878 -26.543244 28.506966 9.277644 
1.073619 0.532362 0.680331 -75.910528 3.343568 141.562285 21.425523 1.233604 -9.134226 -9.993617 -30.405595 20.974620 2.877363 16.615413 -55.093810 0.000000 -0.000000 0.000000 -14.590502 -29.016126 -116.415760 11.622914 -39.508702 48.582502 9.647800 -13.840154 12.625935 0.000000 -0.000000 0.000000 4.453574 -7.454672 43.892240 1.751904 5.032492 -12.925810 8.253388 -2.756427 1.610917 -2.340988 13.376175 -45.683422 4.243375 -10.132183 -8.228035 5.974709 -44.023824 -5.165148 -14.213583 -34.893416 -11.919646 17.399430 -17.098600 -11.142969 47.196133 -23.058365 1.380038 5.320622 53.896996 1.641996 6.008678 51.447232 -20.340837 -13.383274 13.874838 0.611705 -25.947175 28.487588 9.526031 
1.079774 0.531332 0.684704 -75.883461 3.237519 141.989880 21.254889 1.422696 -10.068292 -9.890427 -29.976343 20.677490 2.924671 16.653429 -55.217445 0.000000 -0.000000 0.000000 -14.776313 -28.621785 -116.121847 11.773204 -38.608397 46.514274 9.758732 -14.740980 13.740427 0.000000 -0.000000 0.000000 4.534115 -7.397545 44.078652 1.841142 4.974711 -12.997634 8.435879 -2.755973 2.061499 -2.096639 12.695050 -44.745484 4.492156 -9.721610 -8.125913 6.716011 -43.877177 -5.756766 -12.940069 -35.039098 -12.694636 17.271215 -17.035508 -11.807644 47.067805 -23.015164 1.463283 4.289771 53.882375 0.938492 4.079591 51.331369 -21.658912 -13.354631 14.017551 -0.104098 -25.651329 28.431768 9.548491 
1.086105 0.530171 0.688747 -75.872840 3.143506 142.480281 21.063307 1.586944 -11.034853 -9.763110 -29.579623 20.339357 2.961594 16.721318 -55.276324 0.000000 -0.000000 0.000000 -14.984787 -28.224720 -115.877475 11.838873 -37.653263 44.392209 9.887494 -15.708557 14.969094 0.000000 -0.000000 0.000000 4.640243 -7.363547 44.233628 1.898970 4.923674 -13.094406 8.611048 -2.733334 2.439503 -1.887106 11.819923 -43.669781 4.735782 -9.086042 -8.164054 7.541904 -43.690617 -6.462154 -11.801767 -35.292692 -13.427934 17.095612 -16.790765 -12.395833 46.910462 -22.954400 1.641037 3.167081 53.860830 0.215047 2.106185 51.241344 -23.036379 -13.233098 14.200620 -0.615180 -25.156176 28.396035 9.805783 
1.092333 0.528793 0.693037 -75.925659 2.938379 143.069070 20.705277 1.615282 -12.159725 -9.625316 -29.067744 20.068902 2.987897 16.845028 -55.368037 0.000000 -0.000000 0.000000 -15.250243 -27.865625 -115.649756 11.796962 -36.686024 42.250671 10.057154 -16.642457 16.181836 0.000000 -0.000000 0.000000 4.667639 -7.256428 44.297888 1.941535 4.842788 -13.247689 8.719648 -2.708177 2.705821 -1.636339 11.086870 -42.512309 4.910359 -8.483786 -8.289466 8.046324 -43.669537 -6.833448 -10.339894 -35.510741 -14.267321 16.873197 -16.499389 -12.986783 46.607855 -23.119654 1.874651 2.464064 53.832993 -0.410354 0.210149 51.227828 -24.157420 -13.099940 14.159672 -1.016895 -24.474609 28.352256 10.227579 
1.098909 0.527382 0.697296 -76.009469 2.680734 143.687653 20.302011 1.624989 -13.322380 -9.480941 -28.601697 19.719079 3.093756 16.966763 -55.343558 0.000000 -0.000000 0.000000 -15.543632 -27.509036 -115.396091 11.758803 -35.570006 39.905535 10.169525 -17.704959 17.572266 0.000000 -0.000000 0.000000 4.698887 -7.184950 44.383895 1.885052 4.730495 -13.429903 8.818727 -2.714593 2.878082 -1.262064 10.065105 -41.079848 5.278030 -7.453695 -8.660332 8.505711 -43.681282 -7.015408 -8.775354 -35.417569 -15.248680 16.654978 -16.577623 -13.380062 46.142237 -23.160833 2.099400 1.093940 53.874482 -1.323641 -1.231049 51.229394 -25.266157 -13.297430 14.030021 -1.828758 -23.579447 27.988960 10.501119 
1.105678 0.525675 0.701645 -76.103229 2.372434 144.351405 19.863824 1.672399 -14.469932 -9.286423 -28.232899 19.166957 3.205790 17.000925 -55.254185 0.000000 -0.000000 0.000000 -15.785397 -27.150544 -115.160517 11.620259 -34.337099 37.541466 10.282269 -18.779390 18.982810 0.000000 -0.000000 0.000000 4.712495 -7.078227 44.392281 1.851512 4.584828 -13.550355 8.932470 -2.767948 3.005091 -0.874029 9.074685 -39.618154 5.667234 -6.444973 -9.028317 8.995432 -43.706964 -7.122709 -7.173073 -35.194360 -16.250827 16.430299 -16.743819 -13.851921 45.810685 -23.233780 2.183881 -0.376599 53.940512 -2.168174 -2.807613 51.165434 -26.445849 -13.516439 13.831438 -2.721297 -22.703398 27.688053 10.790338 
1.112846 0.523811 0.705938 -76.168196 2.086066 145.012068 19.547966 1.737668 -15.625112 -9.243966 -27.920453 18.569689 3.169342 16.905238 -54.973901 0.000000 -0.000000 0.000000 -16.036113 -26.729983 -114.902574 11.371967 -32.934249 35.098185 10.409325 -20.066422 20.451975 0.000000 -0.000000 0.000000 4.682363 -6.874569 44.377257 1.927153 4.454641 -13.542338 9.135896 -2.917461 3.088995 -0.494379 8.189082 -38.298188 6.005233 -5.498733 -9.347995 9.429155 -43.720499 -7.113912 -5.189254 -34.866963 -17.252262 16.010879 -16.886776 -14.806224 45.908775 -23.551274 2.304678 -1.521053 54.009230 -2.646345 -5.545052 50.899179 -27.949729 -13.010211 13.357496 -3.801919 -22.606131 27.788347 11.040199 
1.120088 0.521876 0.710273 -76.234254 1.769021 145.655171 19.158318 1.812520 -16.772908 -9.110429 -27.635765 17.934310 3.185042 16.832032 -54.667696 0.000000 -0.000000 0.000000 -16.276942 -26.262359 -114.648193 10.927855 -31.463763 32.776854 10.418970 -21.297819 21.920467 0.000000 -0.000000 0.000000 4.656501 -6.753403 44.300203 1.954726 4.223042 -13.492343 9.287445 -3.020946 3.266095 -0.219955 7.290248 -37.020668 6.569812 -4.665440 -9.751537 10.229990 -43.832700 -7.205280 -3.419525 -34.151652 -18.296032 15.656571 -17.262584 -15.748621 46.069905 -23.811523 2.307386 -3.133051 54.137489 -3.396452 -7.679569 50.267678 -29.445773 -12.820972 13.263577 -4.717369 -21.954822 27.775498 11.514856 
1.127324 0.520063 0.714568 -76.204504 1.443383 146.138511 18.864049 1.862032 -17.835290 -9.017662 -27.306122 17.352758 3.175690 16.568241 -54.342792 0.000000 -0.000000 0.000000 -16.524902 -25.811164 -114.189486 10.353378 -30.078510 30.543521 10.405668 -22.389421 23.367554 0.000000 -0.000000 0.000000 4.670469 -6.672511 44.291265 2.052349 3.968001 -13.293653 9.441639 -3.117480 3.470106 -0.091084 6.494692 -35.723134 6.977806 -3.977288 -10.171101 11.339148 -43.880591 -7.441719 -1.950589 -33.544758 -19.342855 15.584548 -17.416448 -16.637777 45.855407 -24.004005 2.344501 -5.058715 54.167406 -4.316835 -9.614723 49.517135 -30.861117 -12.765859 13.271768 -5.596786 -21.106944 27.614153 11.717762 
1.134423 0.518418 0.718700 -76.089068 1.176197 146.500531 18.674900 1.954263 -18.775821 -8.921700 -27.006135 16.786914 3.115462 16.256048 -53.995191 0.000000 -0.000000 0.000000 -16.740066 -25.286242 -113.584576 9.710930 -28.624576 28.323497 10.365026 -23.458125 24.803205 0.000000 -0.000000 0.000000 4.714128 -6.625277 44.476558 2.171901 3.764249 -13.147204 9.632283 -3.199347 3.763684 -0.131913 5.767991 -34.766186 7.152926 -3.468235 -10.201499 12.938039 -43.626336 -8.067463 -0.899839 -33.343225 -20.445533 15.581397 -17.185118 -17.000544 45.480154 -23.996348 2.112334 -7.304673 53.960976 -5.492956 -11.427105 48.983959 -32.386802 -12.777407 13.203638 -6.182440 -20.238255 27.341478 11.596710 
1.141045 0.517089 0.722509 -75.970769 0.933029 146.874382 18.474386 2.133641 -19.628772 -8.741251 -26.720898 16.173877 3.010506 15.856235 -53.652059 0.000000 -0.000000 0.000000 -16.972932 -24.679051 -113.020911 8.899713 -27.105346 26.205646 10.227431 -24.459241 26.237835 0.000000 -0.000000 0.000000 4.736022 -6.668221 44.566940 2.306033 3.486054 -13.098306 9.769499 -3.202203 3.997366 -0.326358 5.130202 -33.109838 7.480573 -2.898657 -10.631916 14.077419 -43.647710 -8.354521 0.233211 -32.849816 -21.333009 15.501149 -16.762408 -17.443641 45.093047 -24.194570 2.142532 -8.513120 54.255021 -5.694687 -13.623341 48.099779 -34.081548 -12.711121 13.104412 -6.607760 -19.385844 27.147398 11.662547 
1.147202 0.515934 0.726630 -75.822664 0.606815 147.136526 18.211697 2.288249 -20.375000 -8.525597 -26.420023 15.632079 2.940058 15.333272 -53.432982 0.000000 -0.000000 0.000000 -17.346735 -24.102286 -112.291198 7.994399 -25.589100 24.099018 10.085477 -25.472764 27.676587 0.000000 -0.000000 0.000000 4.742848 -6.735706 44.759089 2.460133 3.160258 -13.102218 9.939150 -3.251515 4.065009 -0.461905 4.267676 -30.905312 7.724226 -1.940515 -11.426638 14.558906 -43.946280 -8.234426 1.699186 -32.091081 -22.236383 15.271821 -16.305980 -18.279620 44.656919 -24.811653 2.585452 -9.051406 54.860126 -5.187506 -16.414161 46.765969 -35.825762 -12.089458 12.888357 -7.140581 -18.860347 27.134663 11.869921 
